<?xml version="1.0" standalone="no"?>
<!DOCTYPE svg PUBLIC "-//W3C//DTD SVG 20010904//EN"
 "http://www.w3.org/TR/2001/REC-SVG-20010904/DTD/svg10.dtd">
<svg version="1.0" xmlns="http://www.w3.org/2000/svg"
 width="500.000000pt" height="500.000000pt" viewBox="0 0 500.000000 500.000000"
 preserveAspectRatio="xMidYMid meet">

<g transform="translate(0.000000,500.000000) scale(0.100000,-0.100000)"
fill="#000012" stroke="none">
<path d="M2315 4470 c-418 -40 -819 -212 -1125 -482 -559 -494 -791 -1258
-599 -1977 57 -216 140 -397 268 -587 240 -359 592 -628 999 -764 227 -76 389
-101 652 -100 963 1 1780 722 1916 1690 25 174 15 492 -20 658 -158 747 -709
1321 -1451 1511 -180 47 -457 68 -640 51z m233 -495 c1 -1 5 -53 9 -116 l6
-113 26 99 c15 55 30 106 34 113 9 13 65 16 85 4 8 -6 16 -45 21 -106 4 -53
11 -99 15 -103 3 -3 6 0 6 8 0 8 10 56 21 107 l22 94 30 -6 c17 -3 32 -8 35
-10 3 -3 -41 -180 -64 -258 -4 -13 -16 -18 -40 -18 -67 0 -71 7 -79 132 -7 95
-10 108 -17 78 -5 -19 -18 -70 -30 -113 l-20 -78 -52 3 -51 3 -6 50 c-3 28 -9
94 -13 147 l-7 98 33 -7 c18 -3 34 -7 36 -8z m-392 -33 c5 -4 40 -64 77 -133
64 -122 66 -127 44 -133 -39 -10 -47 -7 -64 28 -14 31 -19 34 -47 29 -53 -10
-66 -21 -66 -57 0 -30 -3 -34 -32 -39 -18 -2 -34 -3 -36 -2 -4 4 28 289 33
294 3 3 53 16 75 20 3 0 10 -3 16 -7z m920 -53 c81 -25 85 -27 73 -56 -8 -22
-9 -22 -56 -8 -64 20 -72 19 -82 -7 -8 -21 -4 -24 43 -39 43 -15 51 -20 48
-40 -1 -12 -4 -24 -5 -26 -2 -1 -25 4 -52 12 -53 16 -63 13 -67 -25 -3 -21 4
-26 52 -41 54 -16 68 -32 51 -57 -6 -11 -20 -10 -72 3 -82 21 -97 30 -105 59
-10 40 47 220 75 236 22 13 20 13 97 -11z m-1141 -146 l42 -132 -30 -11 c-17
-5 -32 -8 -34 -7 -7 8 -83 242 -83 258 0 19 16 29 44 26 15 -2 28 -28 61 -134z
m-180 -54 c50 -55 90 -105 90 -111 0 -6 -12 -15 -27 -20 -23 -8 -31 -6 -50 17
l-23 26 -42 -18 c-41 -18 -42 -19 -36 -58 5 -37 3 -42 -22 -53 -15 -7 -29 -11
-32 -9 -5 6 -43 245 -43 274 0 24 40 52 75 52 13 0 53 -37 110 -100z m1621 82
l31 -19 -19 -134 c-25 -170 -20 -160 -58 -146 -31 10 -32 12 -26 53 7 41 6 42
-34 60 l-41 19 -23 -29 c-22 -27 -25 -28 -55 -15 -17 7 -30 16 -29 21 8 23
192 209 206 209 9 0 31 -9 48 -19z m-1958 -135 c10 -23 8 -27 -34 -53 -60 -38
-63 -54 -20 -119 40 -59 69 -70 100 -35 17 18 16 21 -9 60 -28 41 -27 54 5 71
16 9 25 1 65 -55 40 -55 45 -68 34 -81 -7 -8 -21 -13 -31 -11 -10 3 -18 0 -18
-7 0 -17 -50 -62 -77 -70 -44 -14 -111 41 -153 125 -26 49 -25 80 2 114 20 25
103 85 118 85 4 0 12 -11 18 -24z m2222 -16 c87 -59 100 -95 54 -149 -16 -19
-35 -31 -50 -31 -15 0 -23 -4 -19 -10 6 -10 -21 -108 -35 -123 -3 -4 -18 2
-33 13 -25 20 -26 22 -11 62 19 54 18 71 -6 85 -17 11 -23 8 -51 -32 l-32 -44
-28 20 -28 20 80 114 c45 63 85 115 90 115 6 0 37 -18 69 -40z m-933 -254 c81
-26 192 -92 260 -155 88 -82 157 -190 204 -321 24 -65 24 -66 27 -662 l3 -598
-716 0 -715 0 0 581 c0 649 -1 637 70 784 88 182 270 333 456 379 32 8 68 17
79 20 11 3 72 3 135 2 90 -3 133 -9 197 -30z m-1317 -831 l0 -25 -305 0 -305
0 0 25 0 25 305 0 305 0 0 -25z m2800 0 l0 -25 -305 0 -305 0 0 25 0 25 305 0
305 0 0 -25z m-420 -1100 c-38 -39 -24 -56 20 -25 28 20 31 20 37 4 4 -12 -1
-22 -15 -32 -12 -8 -22 -20 -22 -28 0 -24 21 -26 45 -4 23 22 55 22 55 0 0
-10 -77 -70 -91 -70 -11 0 -68 63 -93 101 l-18 30 42 40 c34 33 45 38 56 28
13 -10 10 -17 -16 -44z m-2519 4 c29 -21 37 -43 19 -54 -6 -3 -22 3 -36 14
-30 24 -51 17 -78 -25 -17 -25 -17 -27 8 -53 46 -48 27 -77 -23 -35 -52 44
-56 59 -26 109 40 69 82 83 136 44z m145 -113 c3 -8 -11 -38 -30 -68 -20 -29
-36 -55 -36 -58 0 -3 13 -14 30 -23 27 -16 33 -47 9 -47 -18 0 -79 45 -84 62
-7 21 71 148 91 148 8 0 17 -6 20 -14z m2226 -13 c10 -9 18 -25 18 -36 0 -11
15 -33 33 -49 31 -27 31 -28 13 -43 -18 -14 -22 -13 -46 10 -35 34 -58 20 -36
-22 11 -23 12 -33 3 -42 -6 -6 -14 -11 -18 -11 -8 0 -99 136 -99 149 0 13 72
60 94 60 11 1 28 -6 38 -16z m-1994 -120 c13 -8 26 -21 29 -29 17 -44 -37
-144 -78 -144 -29 0 -77 27 -90 51 -15 28 13 101 48 129 27 21 49 20 91 -7z
m1782 -11 c34 -34 54 -96 39 -123 -11 -22 -60 -49 -87 -49 -35 0 -82 68 -82
117 0 37 9 49 50 67 47 20 47 20 80 -12z m-1567 -76 c43 -15 57 -24 57 -39 0
-15 -5 -18 -29 -12 -28 6 -30 4 -51 -59 -22 -66 -26 -71 -54 -60 -13 5 -12 15
9 72 24 67 22 81 -12 82 -15 0 -15 2 -7 25 4 9 12 15 18 13 6 -2 37 -12 69
-22z m1341 -1 c4 -11 -3 -19 -20 -25 -14 -6 -24 -16 -21 -23 33 -89 39 -120
26 -128 -24 -15 -33 -5 -53 60 -19 59 -22 62 -47 57 -19 -4 -29 0 -33 11 -8
20 -9 20 55 42 67 24 85 25 93 6z m-1153 -55 c6 0 7 -15 3 -35 -4 -22 -2 -35
4 -35 6 0 17 -2 25 -5 9 -4 17 5 24 27 7 25 14 32 29 30 10 -2 20 -5 22 -6 2
-3 -23 -121 -34 -158 -3 -10 -15 -18 -26 -18 -18 0 -20 4 -13 46 6 45 6 45
-21 42 -22 -2 -30 -10 -36 -35 -8 -32 -30 -44 -43 -23 -3 6 2 48 11 95 14 64
22 84 32 80 7 -3 18 -5 23 -5z m919 -19 c0 -14 -10 -20 -40 -25 -58 -9 -47
-36 15 -36 28 0 55 -34 55 -68 0 -27 -55 -55 -99 -50 -37 4 -33 31 7 39 18 4
35 9 39 12 11 12 -9 27 -37 27 -36 0 -60 23 -60 59 0 41 25 57 93 60 20 1 27
-4 27 -18z m-581 -36 c2 -2 1 -11 -3 -20 -4 -12 -14 -14 -40 -10 -22 5 -36 3
-41 -5 -9 -15 12 -30 43 -30 13 0 22 -6 22 -15 0 -10 -11 -15 -35 -15 -28 0
-35 -4 -35 -19 0 -15 8 -21 32 -23 22 -2 34 -9 36 -20 3 -15 -4 -18 -40 -18
-71 0 -82 15 -75 95 8 89 18 99 81 90 28 -3 52 -8 55 -10z m221 -15 c0 -17 -7
-20 -40 -20 -50 0 -51 -15 -3 -35 42 -18 53 -30 53 -62 0 -36 -26 -53 -81 -53
-42 0 -49 3 -49 20 0 17 7 20 40 20 49 0 56 25 10 35 -32 7 -60 38 -60 67 0
31 29 48 81 48 42 0 49 -3 49 -20z"/>
<path d="M2117 3850 c-11 -53 -8 -70 11 -70 37 0 41 13 18 59 l-23 44 -6 -33z"/>
<path d="M1633 3715 c3 -11 8 -37 12 -57 5 -35 7 -37 30 -26 14 6 25 14 25 17
-1 3 -17 24 -37 46 -23 27 -34 33 -30 20z"/>
<path d="M3301 3689 c-19 -22 -32 -41 -30 -43 2 -2 14 -8 26 -15 18 -9 22 -8
26 7 8 27 18 92 15 91 -2 0 -18 -18 -37 -40z"/>
<path d="M3571 3551 l-20 -28 35 -19 c35 -19 36 -19 50 0 20 28 18 41 -11 60
-31 21 -30 21 -54 -13z"/>
<path d="M2365 3346 c-270 -52 -478 -253 -539 -523 -14 -62 -16 -149 -16 -612
l0 -541 310 0 310 0 2 75 c1 41 2 85 2 97 1 19 -7 23 -65 34 -195 36 -359 193
-398 382 -53 254 60 523 319 763 97 89 208 179 222 179 28 0 272 -253 340
-354 158 -230 193 -505 91 -716 -66 -137 -259 -259 -409 -260 -50 0 -54 -9
-54 -122 l0 -78 341 0 340 0 -4 563 c-4 618 -3 609 -68 741 -136 273 -436 427
-724 372z"/>
<path d="M2420 3071 c-258 -207 -395 -427 -407 -652 -6 -108 5 -173 45 -259
35 -74 116 -154 195 -191 61 -28 172 -58 180 -48 2 2 7 52 10 111 l6 107 -145
156 c-80 86 -143 162 -141 168 11 33 42 10 158 -116 l124 -134 6 66 c4 36 7
100 8 141 l1 75 -91 98 c-58 62 -89 103 -85 112 11 29 35 14 102 -59 37 -41
71 -73 76 -70 4 3 8 53 8 112 0 113 7 139 35 128 15 -5 17 -20 14 -126 -2 -66
-2 -120 -1 -120 2 0 39 32 82 71 44 39 84 68 89 64 25 -15 5 -45 -83 -125
l-93 -85 -7 -138 c-4 -77 -6 -140 -4 -142 2 -2 64 52 138 121 127 117 165 140
165 103 0 -9 -68 -79 -151 -157 -169 -157 -164 -148 -164 -295 l0 -78 48 7
c122 17 233 73 302 151 76 86 110 188 110 329 0 170 -54 313 -181 481 -61 81
-240 263 -258 263 -3 0 -44 -31 -91 -69z"/>
<path d="M3558 1278 c-14 -11 -15 -16 -5 -29 11 -15 15 -15 32 -3 17 13 17 16
4 29 -12 12 -18 13 -31 3z"/>
<path d="M1550 1138 c-24 -40 -25 -52 -4 -69 14 -11 20 -9 41 15 15 18 23 38
21 55 -5 39 -34 39 -58 -1z"/>
<path d="M3332 1148 c-12 -16 6 -65 32 -87 15 -12 19 -12 33 1 14 15 14 20 -3
55 -20 40 -44 52 -62 31z"/>
</g>
</svg>
