<?xml version="1.0" standalone="no"?>
<!DOCTYPE svg PUBLIC "-//W3C//DTD SVG 20010904//EN"
 "http://www.w3.org/TR/2001/REC-SVG-20010904/DTD/svg10.dtd">
<svg version="1.0" xmlns="http://www.w3.org/2000/svg"
 width="24.000000pt" height="24.000000pt" viewBox="0 0 24.000000 24.000000"
 preserveAspectRatio="xMidYMid meet">

<g transform="translate(0.000000,24.000000) scale(0.100000,-0.100000)"
fill="#000000" stroke="none">
<path d="M79 198 c-7 -13 -18 -27 -25 -33 -7 -6 -14 -39 -16 -75 l-3 -65 85 0
85 0 -3 65 c-2 36 -9 69 -16 75 -7 6 -18 20 -25 33 -8 15 -21 22 -41 22 -20 0
-33 -7 -41 -22z m59 0 c19 -19 14 -28 -18 -28 -32 0 -37 9 -18 28 15 15 21 15
36 0z m-57 -78 c5 0 9 9 9 20 0 16 7 20 30 20 23 0 30 -4 30 -20 0 -28 20 -25
21 3 1 43 18 -14 18 -65 l1 -48 -70 0 -70 0 0 43 c0 23 3 53 7 67 7 24 8 25
11 3 2 -13 8 -23 13 -23z"/>
</g>
</svg>
