<?xml version="1.0" standalone="no"?>
<!DOCTYPE svg PUBLIC "-//W3C//DTD SVG 20010904//EN"
 "http://www.w3.org/TR/2001/REC-SVG-20010904/DTD/svg10.dtd">
<svg version="1.0" xmlns="http://www.w3.org/2000/svg"
 width="22.000000pt" height="22.000000pt" viewBox="0 0 64.000000 64.000000"
 preserveAspectRatio="xMidYMid meet">

<g transform="translate(0.000000,64.000000) scale(0.100000,-0.100000)"
fill="#000000" stroke="none">
<path d="M284 555 c-28 -14 -60 -38 -72 -55 -15 -19 -31 -30 -47 -30 -39 0
-94 -57 -102 -104 -3 -22 -17 -56 -31 -75 -47 -69 -15 -178 62 -215 27 -13 68
-16 213 -16 199 0 235 9 286 69 45 54 49 156 8 212 -12 16 -21 38 -21 51 -1
34 -34 99 -66 130 -66 61 -149 73 -230 33z m166 -37 c48 -24 90 -88 90 -136 0
-13 11 -40 25 -60 48 -71 28 -160 -47 -202 -36 -20 -49 -21 -224 -18 l-186 3
-29 33 c-38 43 -40 101 -4 148 14 18 25 42 25 54 0 29 26 76 45 84 54 20 110
-6 123 -57 11 -41 42 -50 42 -12 0 34 -16 65 -48 92 -22 19 -24 24 -12 38 22
27 82 54 120 55 20 0 56 -10 80 -22z"/>
</g>
</svg>
