<?xml version="1.0" standalone="no"?>
<!DOCTYPE svg PUBLIC "-//W3C//DTD SVG 20010904//EN"
 "http://www.w3.org/TR/2001/REC-SVG-20010904/DTD/svg10.dtd">
<svg version="1.0" xmlns="http://www.w3.org/2000/svg"
 width="22.000000pt" height="22.000000pt" viewBox="0 0 64.000000 64.000000"
 preserveAspectRatio="xMidYMid meet">

<g transform="translate(0.000000,64.000000) scale(0.100000,-0.100000)"
fill="#000000" stroke="none">
<path d="M253 600 c-26 -11 -43 -40 -43 -74 0 -24 -2 -25 -72 -28 -57 -2 -73
-6 -73 -18 0 -13 35 -15 255 -15 220 0 255 2 255 15 0 12 -16 16 -72 18 -73 3
-73 3 -73 31 0 51 -29 74 -96 78 -32 1 -69 -1 -81 -7z m125 -42 c7 -7 12 -22
12 -35 0 -22 -4 -23 -70 -23 -66 0 -70 1 -70 23 0 13 5 28 12 35 16 16 100 16
116 0z"/>
<path d="M90 399 c0 -37 51 -312 61 -332 16 -29 53 -37 169 -37 116 0 153 8
169 37 10 20 61 295 61 332 0 16 -5 21 -17 19 -14 -2 -23 -34 -45 -162 -16
-88 -34 -166 -40 -173 -15 -18 -241 -18 -256 0 -6 7 -24 85 -40 173 -22 128
-31 160 -45 162 -12 2 -17 -3 -17 -19z"/>
</g>
</svg>
