<?xml version="1.0" standalone="no"?>
<!DOCTYPE svg PUBLIC "-//W3C//DTD SVG 20010904//EN"
 "http://www.w3.org/TR/2001/REC-SVG-20010904/DTD/svg10.dtd">
<svg version="1.0" xmlns="http://www.w3.org/2000/svg"
 width="24.000000pt" height="24.000000pt" viewBox="0 0 24.000000 24.000000"
 preserveAspectRatio="xMidYMid meet">

<g transform="translate(0.000000,24.000000) scale(0.100000,-0.100000)"
fill="#000000" stroke="none">
<path d="M76 176 c-44 -53 -48 -101 -13 -134 32 -30 87 -29 115 1 34 36 29 82
-14 133 -19 24 -39 44 -44 44 -5 0 -25 -20 -44 -44z m84 -18 c16 -22 30 -49
30 -58 0 -31 -39 -70 -70 -70 -31 0 -70 39 -70 70 0 20 56 100 70 100 5 0 23
-19 40 -42z"/>
<path d="M70 94 c0 -12 7 -27 15 -34 19 -16 19 -10 0 26 -13 25 -15 26 -15 8z"/>
</g>
</svg>
